<?xml version="1.0" standalone="no"?>
<!DOCTYPE svg PUBLIC "-//W3C//DTD SVG 20010904//EN"
 "http://www.w3.org/TR/2001/REC-SVG-20010904/DTD/svg10.dtd">
<svg version="1.0" xmlns="http://www.w3.org/2000/svg"
 width="820.000000pt" height="820.000000pt" viewBox="0 0 820.000000 820.000000"
 preserveAspectRatio="xMidYMid meet">
<metadata>
Created by potrace 1.11, written by Peter Selinger 2001-2013
</metadata>
<g transform="translate(0.000000,820.000000) scale(0.100000,-0.100000)"
fill="#000000" stroke="none">
<path d="M3869 8195 c-2 -2 -38 -6 -79 -9 -151 -11 -318 -33 -465 -63 -45 -9
-111 -23 -132 -28 -13 -3 -31 -7 -40 -9 -141 -32 -471 -137 -499 -158 -7 -5
-20 -11 -30 -13 -32 -7 -163 -63 -271 -115 -55 -28 -106 -50 -111 -50 -6 0
-12 -4 -14 -8 -1 -4 -37 -27 -79 -49 -198 -106 -445 -276 -645 -444 -189 -158
-383 -354 -514 -519 -19 -24 -42 -51 -50 -60 -23 -23 -141 -185 -197 -270
-181 -273 -335 -580 -450 -900 -19 -52 -36 -102 -38 -110 -1 -9 -15 -56 -31
-105 -15 -50 -28 -99 -30 -110 -2 -11 -10 -45 -18 -75 -8 -30 -18 -71 -21 -90
-3 -19 -10 -53 -15 -75 -9 -39 -15 -73 -25 -137 -3 -18 -7 -44 -10 -58 -9 -45
-21 -172 -32 -315 -12 -180 -6 -569 11 -675 2 -14 7 -54 11 -90 4 -36 9 -74
10 -85 7 -51 16 -103 21 -125 3 -14 7 -39 9 -57 2 -18 6 -37 9 -42 3 -5 8 -24
10 -42 12 -88 95 -375 159 -549 100 -273 305 -677 424 -836 13 -17 23 -34 23
-37 0 -4 7 -15 14 -24 8 -10 55 -72 105 -138 49 -66 101 -133 116 -150 14 -16
47 -55 73 -85 26 -30 108 -116 182 -190 125 -126 181 -177 285 -262 23 -18 47
-39 55 -46 90 -78 345 -250 511 -345 165 -94 405 -210 514 -248 22 -8 43 -18
46 -22 3 -5 8 -7 10 -6 2 2 38 -8 79 -23 222 -78 478 -145 663 -173 15 -3 39
-7 55 -10 54 -11 150 -24 227 -30 33 -3 85 -8 115 -11 121 -14 615 -7 720 10
14 3 50 7 81 11 31 3 66 7 77 10 11 2 37 6 58 9 41 6 115 19 124 21 3 1 23 5
45 9 73 14 308 75 407 104 53 17 99 28 101 25 3 -2 17 -6 33 -9 16 -2 40 -7
54 -9 14 -3 36 -7 50 -10 27 -4 62 -11 95 -18 11 -3 43 -8 70 -13 65 -11 69
-11 75 -14 3 -1 19 -3 35 -5 17 -2 41 -6 55 -9 41 -9 122 -25 160 -30 19 -3
71 -12 115 -21 44 -9 91 -17 105 -19 14 -2 54 -9 90 -16 36 -7 74 -14 85 -15
32 -5 87 -15 134 -26 24 -5 46 -7 49 -4 3 2 11 0 18 -5 6 -6 16 -10 20 -8 5 1
25 -1 44 -5 19 -3 49 -9 65 -12 17 -2 41 -7 55 -10 14 -3 39 -8 55 -10 17 -3
41 -7 55 -10 14 -3 41 -8 60 -11 19 -3 43 -7 53 -10 10 -3 32 -7 50 -10 18 -2
44 -6 58 -9 17 -4 26 -2 26 7 1 14 11 124 17 173 2 17 6 64 10 105 9 97 21
212 31 305 2 22 7 65 9 95 7 65 15 149 21 205 2 22 7 69 11 105 3 36 8 79 10
95 1 17 6 64 9 105 3 41 8 86 10 100 5 28 12 94 21 190 3 36 7 81 9 100 2 19
6 66 10 105 5 52 13 77 31 98 13 16 24 32 24 37 0 5 6 15 13 22 44 44 195 295
282 467 194 384 313 744 385 1161 43 251 54 387 53 680 -1 248 -6 339 -27 500
-3 25 -8 61 -11 80 -2 19 -6 46 -9 60 -3 14 -8 41 -10 60 -3 19 -8 46 -11 60
-3 14 -8 34 -10 45 -2 11 -6 31 -9 45 -3 14 -8 35 -10 48 -13 61 -69 268 -77
284 -5 10 -7 18 -3 18 3 0 2 6 -3 13 -6 6 -16 35 -23 62 -41 152 -217 544
-334 740 -32 55 -64 109 -70 120 -19 35 -130 199 -148 219 -10 11 -18 23 -18
27 0 3 -13 22 -30 40 -16 19 -30 37 -30 40 0 4 -12 21 -27 38 -16 17 -33 36
-38 43 -126 160 -369 409 -514 528 -24 19 -53 43 -64 54 -12 10 -38 30 -57 45
-19 14 -37 28 -40 31 -3 3 -21 17 -40 30 -19 13 -37 27 -40 30 -12 14 -204
142 -300 200 -176 105 -494 262 -620 305 -14 5 -48 18 -70 27 -118 48 -544
165 -665 183 -22 3 -65 10 -95 15 -53 9 -70 11 -190 25 -30 3 -73 8 -95 11
-47 6 -581 14 -586 9z m516 -249 c137 -13 180 -17 210 -22 17 -2 44 -7 60 -9
17 -2 41 -6 55 -8 14 -3 45 -8 70 -11 25 -4 54 -10 64 -13 11 -3 58 -14 105
-24 47 -11 93 -21 101 -23 8 -3 40 -11 70 -20 114 -31 166 -47 182 -56 10 -6
23 -10 29 -10 15 0 233 -84 272 -105 16 -8 35 -15 43 -15 8 0 14 -4 14 -10 0
-5 7 -10 15 -10 19 0 315 -152 315 -161 0 -7 -9 -15 -135 -108 -106 -80 -166
-129 -260 -211 -119 -105 -274 -260 -376 -375 -24 -27 -46 -52 -49 -55 -47
-45 -246 -311 -336 -450 -27 -41 -52 -76 -56 -78 -5 -2 -8 -7 -8 -12 0 -4 -34
-67 -76 -141 -114 -202 -182 -348 -266 -569 -66 -173 -129 -367 -143 -439 -2
-9 -4 -16 -5 -16 -2 0 -1 2 -34 -145 -24 -112 -32 -154 -42 -215 -3 -16 -7
-41 -9 -55 -2 -14 -7 -52 -10 -85 -7 -64 -14 -84 -16 -44 0 13 -2 33 -5 44 -2
11 -6 40 -10 65 -3 25 -8 54 -10 65 -2 11 -8 45 -14 75 -14 79 -20 111 -30
150 -5 19 -11 46 -14 60 -3 14 -10 43 -16 65 -6 22 -13 51 -16 65 -8 36 -10
43 -16 60 -4 8 -29 87 -58 175 -54 168 -94 275 -129 350 -12 25 -21 47 -21 51
0 23 -215 428 -271 511 -16 23 -29 44 -29 47 0 14 -200 295 -271 380 -5 6 -19
22 -30 36 -187 226 -452 482 -659 636 -36 27 -67 51 -70 55 -3 3 -54 39 -113
79 -59 40 -106 74 -105 75 7 6 188 96 248 123 199 90 515 199 660 228 14 3 50
11 80 19 30 8 71 17 90 20 19 3 58 10 85 15 28 5 66 12 85 14 19 2 55 7 80 10
85 12 125 16 210 22 47 3 86 7 87 8 5 5 417 -2 478 -8z m-2364 -769 c99 -63
145 -95 268 -184 13 -10 30 -24 37 -30 7 -7 17 -13 22 -13 6 0 12 -4 14 -8 2
-4 23 -23 47 -42 25 -19 52 -42 61 -50 9 -8 46 -40 81 -70 35 -30 136 -127
225 -215 137 -137 186 -190 285 -310 8 -9 21 -24 29 -33 8 -10 40 -51 70 -92
30 -41 57 -77 60 -80 4 -3 26 -34 50 -70 24 -36 47 -66 52 -68 4 -2 8 -10 8
-18 0 -8 5 -14 10 -14 6 0 10 -5 10 -11 0 -6 14 -30 30 -54 17 -24 30 -48 30
-53 0 -6 4 -12 8 -14 18 -7 259 -468 245 -468 -3 0 -1 -6 5 -12 10 -13 46
-100 95 -228 24 -63 87 -263 103 -325 4 -16 8 -32 9 -35 1 -3 5 -18 9 -35 4
-16 11 -46 17 -65 5 -19 11 -46 14 -60 2 -14 6 -34 8 -45 2 -11 8 -38 12 -60
7 -37 10 -55 19 -110 2 -11 4 -20 5 -20 1 0 4 -16 5 -35 3 -31 7 -63 22 -190
26 -221 21 -669 -10 -885 -2 -16 -7 -57 -11 -90 -4 -33 -9 -69 -11 -80 -3 -11
-7 -36 -10 -55 -3 -19 -9 -53 -14 -75 -5 -22 -12 -56 -15 -75 -3 -19 -15 -73
-27 -120 -11 -47 -21 -89 -22 -95 -2 -5 -8 -30 -15 -55 -8 -25 -14 -49 -16
-55 -1 -5 -4 -17 -7 -25 -15 -40 -60 -177 -63 -190 -2 -8 -9 -28 -16 -45 -6
-16 -13 -34 -14 -40 -5 -21 -65 -164 -99 -239 -20 -43 -36 -84 -36 -91 0 -7
-4 -15 -9 -17 -4 -2 -29 -46 -56 -98 -52 -106 -124 -232 -135 -240 -4 -3 -15
-21 -24 -40 -13 -29 -133 -210 -163 -245 -5 -5 -24 -31 -42 -57 -19 -27 -37
-48 -41 -48 -3 0 -14 -15 -25 -33 -10 -17 -24 -37 -29 -43 -11 -11 -107 -120
-139 -158 -48 -57 -233 -236 -244 -236 -6 0 -15 4 -18 10 -3 5 -12 10 -20 10
-45 0 -436 202 -603 312 -41 26 -75 48 -78 48 -2 0 -30 20 -63 45 -32 25 -62
45 -65 45 -4 0 -17 9 -29 20 -12 11 -56 47 -97 80 -222 179 -436 396 -605 610
-19 25 -39 50 -43 55 -68 85 -222 319 -282 430 -103 188 -220 439 -220 471 0
8 -5 14 -12 14 -6 0 -8 3 -5 7 4 3 3 11 -2 17 -4 6 -16 36 -25 66 -10 30 -21
64 -26 75 -5 11 -19 54 -30 95 -12 41 -24 82 -27 90 -7 18 -5 9 -36 140 -14
58 -29 123 -33 145 -5 22 -9 42 -9 45 -3 10 -18 106 -21 125 -1 11 -3 20 -4
20 -2 0 -10 74 -26 230 -9 85 -10 546 -2 635 13 140 19 185 39 300 26 157 28
169 41 215 5 22 12 51 15 65 6 35 22 100 33 130 10 29 73 232 75 240 1 8 57
152 74 190 8 19 15 37 16 40 11 38 115 249 182 369 54 97 196 320 226 356 4 6
25 33 45 60 21 28 45 59 54 70 10 11 31 38 48 60 114 146 345 379 511 515 102
84 215 169 225 170 6 0 63 -33 125 -73z m4371 16 c2 -5 37 -35 78 -68 41 -32
80 -64 87 -70 123 -111 165 -150 217 -202 96 -97 157 -163 216 -233 30 -36 57
-67 60 -70 15 -13 161 -214 205 -280 28 -41 53 -76 58 -78 4 -2 7 -8 7 -13 0
-5 25 -51 56 -102 69 -115 189 -359 244 -497 85 -213 182 -541 210 -711 5 -35
12 -75 15 -89 3 -14 7 -38 9 -55 2 -16 7 -50 10 -75 41 -276 41 -676 1 -980
-12 -87 -16 -115 -22 -145 -3 -16 -7 -39 -9 -50 -4 -26 -13 -69 -25 -125 -6
-25 -12 -54 -15 -65 -27 -133 -131 -448 -204 -620 -53 -124 -198 -409 -211
-413 -5 -2 -9 -8 -9 -14 0 -12 -207 -327 -226 -343 -6 -5 -25 -30 -42 -55 -16
-25 -39 -55 -50 -68 -11 -13 -35 -41 -54 -64 -241 -297 -652 -639 -1008 -841
-47 -27 -92 -52 -100 -57 -56 -34 -291 -140 -300 -135 -5 3 -10 2 -10 -4 0
-10 -98 -50 -235 -96 -44 -14 -87 -29 -95 -32 -8 -3 -19 -7 -25 -8 -5 -2 -50
-15 -100 -29 -87 -26 -108 -31 -150 -41 -11 -2 -30 -6 -42 -9 -72 -18 -271
-54 -338 -61 -27 -4 -60 -8 -71 -10 -152 -25 -665 -25 -843 0 -20 3 -54 7 -76
10 -22 2 -78 11 -125 19 -47 9 -96 18 -110 20 -165 25 -605 156 -648 191 -2 2
23 27 54 56 93 87 285 281 339 343 28 32 55 63 60 69 6 7 28 34 50 62 22 27
48 59 58 70 10 11 26 32 35 48 9 15 20 27 24 27 4 0 8 5 8 10 0 6 9 21 21 33
11 12 41 54 67 92 25 39 49 72 52 75 3 3 24 34 45 70 21 36 43 66 47 68 4 2 8
8 8 14 0 5 21 44 47 86 157 259 347 715 429 1027 17 66 73 321 78 356 4 25 9
59 12 75 8 43 13 76 13 102 1 36 18 25 19 -13 1 -20 4 -40 6 -44 3 -4 8 -26
11 -47 2 -21 7 -50 10 -64 3 -14 8 -41 11 -60 3 -19 13 -64 21 -100 8 -36 16
-72 18 -80 2 -8 9 -35 16 -60 7 -25 12 -48 11 -53 -1 -4 4 -23 12 -42 8 -19
12 -35 9 -35 -3 0 0 -6 6 -14 6 -8 11 -18 10 -22 -1 -5 0 -12 1 -16 1 -5 3
-11 5 -15 1 -5 4 -15 7 -23 11 -31 69 -205 72 -215 1 -5 10 -27 19 -49 9 -21
17 -42 17 -46 0 -4 11 -32 24 -61 33 -74 39 -93 38 -101 -1 -5 3 -8 8 -8 6 0
10 -5 10 -12 0 -15 117 -253 164 -333 20 -33 40 -69 46 -80 6 -11 16 -29 23
-40 7 -11 25 -42 42 -70 16 -27 32 -52 35 -55 4 -4 108 -156 135 -197 6 -9 20
-27 33 -41 12 -14 22 -31 22 -38 0 -8 4 -14 8 -14 4 0 26 -23 47 -52 22 -28
44 -56 50 -62 6 -6 17 -20 25 -32 45 -64 400 -437 408 -429 3 2 -24 33 -60 69
-119 119 -274 296 -341 389 -17 23 -39 50 -49 61 -10 11 -18 23 -18 26 0 4 -9
17 -20 30 -11 12 -34 46 -52 74 -18 28 -38 57 -45 64 -7 7 -13 20 -13 28 0 8
-4 14 -8 14 -5 0 -15 12 -23 27 -8 16 -17 30 -20 33 -18 16 -179 318 -231 436
-39 86 -62 138 -63 144 -1 3 -9 23 -18 44 -20 45 -114 321 -121 357 -3 13 -15
58 -26 99 -30 109 -69 296 -85 405 -11 79 -21 156 -30 228 -22 180 -22 615 0
802 19 162 27 223 31 245 2 14 7 40 10 59 3 18 8 43 10 55 2 11 6 35 9 51 6
35 24 114 38 170 6 22 11 45 13 50 8 39 31 118 66 230 23 72 42 132 43 135 1
3 7 19 14 35 7 17 14 35 15 40 2 6 8 21 13 35 6 14 20 48 31 75 63 159 236
501 288 572 12 15 29 44 39 63 10 19 21 37 24 40 4 3 22 29 39 58 18 30 37 59
43 65 5 7 33 44 61 82 29 39 55 72 60 73 4 2 8 10 8 17 0 7 3 15 8 17 4 2 23
23 41 48 19 25 44 54 55 66 12 11 37 40 56 65 39 48 330 342 398 402 24 20 48
37 53 37 5 0 9 4 9 8 0 23 479 372 511 372 5 0 9 5 9 10 0 12 47 14 52 3z"/>
<path d="M4088 7745 c-2 -2 -19 -7 -38 -10 -166 -28 -368 -166 -445 -305 -11
-19 -23 -38 -28 -41 -8 -6 -63 -155 -73 -196 -16 -75 -11 -241 10 -318 2 -5 6
-23 11 -40 4 -16 17 -48 28 -70 11 -22 20 -42 20 -45 -1 -7 57 -91 73 -107 7
-7 21 -23 31 -36 47 -59 240 -187 282 -187 5 0 22 -5 38 -11 37 -15 61 -19
173 -24 85 -3 131 2 242 29 65 16 206 104 274 171 122 119 206 317 204 480 -1
112 -13 184 -45 264 -87 222 -274 382 -512 438 -40 9 -237 16 -245 8z"/>
</g>
</svg>
