<svg id="Layer_1" data-name="Layer 1" xmlns="http://www.w3.org/2000/svg" xmlns:xlink="http://www.w3.org/1999/xlink" viewBox="0 0 1524.72 205"><defs><style>.cls-1{fill:url(#linear-gradient);}.cls-2{fill:url(#linear-gradient-2);}.cls-3{fill:url(#linear-gradient-3);}.cls-4{fill:url(#linear-gradient-4);}.cls-5{fill:url(#linear-gradient-5);}.cls-6{fill:url(#linear-gradient-6);}.cls-7{fill:url(#linear-gradient-7);}.cls-8{fill:url(#linear-gradient-8);}.cls-9{fill:url(#linear-gradient-9);}.cls-10{fill:url(#linear-gradient-10);}.cls-11{fill:url(#linear-gradient-11);}.cls-12{fill:url(#linear-gradient-12);}.cls-13{fill:url(#linear-gradient-13);}.cls-14{fill:url(#linear-gradient-14);}.cls-15{fill:url(#linear-gradient-15);}.cls-16{fill:url(#linear-gradient-16);}.cls-17{fill:url(#linear-gradient-17);}.cls-18{fill:url(#linear-gradient-18);}.cls-19{fill:url(#linear-gradient-19);}.cls-20{fill:url(#linear-gradient-20);}.cls-21{fill:url(#linear-gradient-21);}.cls-22{fill:url(#linear-gradient-22);}</style><linearGradient id="linear-gradient" x1="73.41" y1="-13.24" x2="76.42" y2="164.67" gradientUnits="userSpaceOnUse"><stop offset="0" stop-color="#f6871f"/><stop offset="1" stop-color="#ed193e"/></linearGradient><linearGradient id="linear-gradient-2" x1="128.62" y1="-14.17" x2="131.62" y2="163.74" xlink:href="#linear-gradient"/><linearGradient id="linear-gradient-3" x1="102.55" y1="-13.73" x2="105.55" y2="164.18" xlink:href="#linear-gradient"/><linearGradient id="linear-gradient-4" x1="99.15" y1="-13.68" x2="102.16" y2="164.24" xlink:href="#linear-gradient"/><linearGradient id="linear-gradient-5" x1="150.31" y1="-14.54" x2="153.31" y2="163.37" xlink:href="#linear-gradient"/><linearGradient id="linear-gradient-6" x1="291.46" y1="24.82" x2="290.02" y2="240.33" xlink:href="#linear-gradient"/><linearGradient id="linear-gradient-7" x1="368.98" y1="25.33" x2="367.54" y2="240.85" xlink:href="#linear-gradient"/><linearGradient id="linear-gradient-8" x1="451.46" y1="25.88" x2="450.02" y2="241.4" xlink:href="#linear-gradient"/><linearGradient id="linear-gradient-9" x1="532.26" y1="26.42" x2="530.82" y2="241.94" xlink:href="#linear-gradient"/><linearGradient id="linear-gradient-10" x1="598.65" y1="26.87" x2="597.22" y2="242.38" xlink:href="#linear-gradient"/><linearGradient id="linear-gradient-11" x1="682.1" y1="27.42" x2="680.66" y2="242.93" xlink:href="#linear-gradient"/><linearGradient id="linear-gradient-12" x1="801" y1="28.21" x2="799.57" y2="243.73" xlink:href="#linear-gradient"/><linearGradient id="linear-gradient-13" x1="875.12" y1="28.71" x2="873.68" y2="244.22" xlink:href="#linear-gradient"/><linearGradient id="linear-gradient-14" x1="949.57" y1="29.21" x2="948.14" y2="244.72" xlink:href="#linear-gradient"/><linearGradient id="linear-gradient-15" x1="1015.78" y1="29.65" x2="1014.34" y2="245.16" xlink:href="#linear-gradient"/><linearGradient id="linear-gradient-16" x1="1093.63" y1="30.17" x2="1092.2" y2="245.68" xlink:href="#linear-gradient"/><linearGradient id="linear-gradient-17" x1="1158.26" y1="30.6" x2="1156.82" y2="246.11" xlink:href="#linear-gradient"/><linearGradient id="linear-gradient-18" x1="1230.71" y1="31.08" x2="1229.27" y2="246.59" xlink:href="#linear-gradient"/><linearGradient id="linear-gradient-19" x1="1277.98" y1="31.39" x2="1276.54" y2="246.91" xlink:href="#linear-gradient"/><linearGradient id="linear-gradient-20" x1="1339.19" y1="31.8" x2="1337.75" y2="247.31" xlink:href="#linear-gradient"/><linearGradient id="linear-gradient-21" x1="1418.72" y1="32.33" x2="1417.28" y2="247.84" xlink:href="#linear-gradient"/><linearGradient id="linear-gradient-22" x1="1498.26" y1="32.86" x2="1496.82" y2="248.38" xlink:href="#linear-gradient"/></defs><title>Ashroe-Illustrator</title><path class="cls-1" d="M102.9,95.28l-.09-.72a109,109,0,0,0-2.76-14.64A107.86,107.86,0,0,0,87.89,51q-2.06-3.38-4.35-6.61t-4.87-6.25A101.27,101.27,0,0,0,67.56,26.79a102.38,102.38,0,0,0-12.17-9.12,93.36,93.36,0,0,0-9.56,5.91A109.33,109.33,0,0,1,61,34.41a113.69,113.69,0,0,1,10.4,10q2.43,2.69,4.69,5.53c1.5,1.9,3,3.83,4.34,5.82a103.47,103.47,0,0,1,13.09,26,101.4,101.4,0,0,1,3.6,14.27,104.41,104.41,0,0,1,1.45,14.71,106,106,0,0,1-9.86,47.38c-.39,1-.91,1.84-1.36,2.76l-1.41,2.74c-1,1.8-2.08,3.54-3.11,5.31s-2.28,3.42-3.43,5.13-2.51,3.27-3.75,4.91-2.7,3.12-4,4.69-2.9,2.94-4.35,4.41c-1,.91-2,1.81-3,2.7l.25.1c1-.85,2-1.69,3-2.56,1.49-1.44,3-2.85,4.48-4.31s2.87-3,4.26-4.53,2.7-3.16,4-4.78,2.54-3.3,3.75-5,2.36-3.43,3.46-5.21l1.6-2.69c.52-.9,1.11-1.78,1.57-2.72a105.71,105.71,0,0,0,9.39-23.3,103.84,103.84,0,0,0,2.94-15.33q.56-4.83.69-9.7A110.75,110.75,0,0,0,102.9,95.28Z"/><path class="cls-2" d="M114,152.85a102.51,102.51,0,0,1-6.4-52.49,103.84,103.84,0,0,1,2.6-12.95c.64-2.11,1.23-4.22,1.89-6.31L114.42,75c.86-2,1.82-4,2.71-6,.42-1,1-1.94,1.51-2.9l1.57-2.87.77-1.44.88-1.39,1.75-2.76c1.1-1.87,2.48-3.57,3.74-5.34a106.88,106.88,0,0,1,30.49-27.6c-1.42-1-2.86-2-4.31-2.94l-.79-.51-1.14-.73-2.19-1.3c-.26-.16-.52-.31-.79-.47a107.43,107.43,0,0,0-28.34,28.53c-1.29,2-2.65,3.89-3.75,6l-1.74,3.08-.86,1.53-.76,1.6-1.5,3.19c-.49,1.07-1,2.11-1.42,3.22-.83,2.19-1.71,4.37-2.49,6.58a103.17,103.17,0,0,0-4.93,22.1q-.3,2.64-.47,5.28a107.64,107.64,0,0,0,.58,20.68,109.94,109.94,0,0,0,9.48,33A112.83,112.83,0,0,0,140,190.06l.17-.07A102.07,102.07,0,0,1,114,152.85Z"/><circle class="cls-3" cx="103.26" cy="28.74" r="17.5"/><path class="cls-4" d="M101.09,0a101.09,101.09,0,1,0,32.33,196.9q4.22-1.42,8.26-3.2A101.17,101.17,0,0,0,176.84,168c2-2.24,3.87-4.57,5.64-7A101.1,101.1,0,0,0,101.09,0Zm80.4,151.21a91.45,91.45,0,0,1-5.54,8,95.08,95.08,0,0,1-42.27,30.93,91.48,91.48,0,0,1-9.09,2.82,94.94,94.94,0,1,1,56.9-41.71Z"/><path class="cls-5" d="M178.07,205l-44.64-8.1-8.83-4a91.48,91.48,0,0,0,9.09-2.82l8,3.61A101.17,101.17,0,0,0,176.84,168l-.89-8.87a91.45,91.45,0,0,0,5.54-8l1,9.85Z"/><path class="cls-6" d="M282.22,52.17H299l23.43,103.61H311.23l-5.42-23.91H275.36l-5.42,23.91H258.78ZM290.5,64.6l-13.07,57.7h26.14Z"/><path class="cls-7" d="M395.39,135.85q0,22.32-26.94,22.32t-26.94-22.32V122.3h11.16v14.19a10.78,10.78,0,0,0,4,8.93q4,3.19,11.8,3.19t11.79-3.19a10.53,10.53,0,0,0,4-8.69A26.17,26.17,0,0,0,383,128a20.05,20.05,0,0,0-4.86-6.93L350.12,93.61A28.91,28.91,0,0,1,343.34,84a33,33,0,0,1-1.83-11.88q0-10.68,6.61-16.5t20-5.82q25.66,0,25.67,22.32V85.64H382.64V71.46q0-5.74-3.75-8.93t-11.24-3.19q-7.5,0-11.24,3.19a10.9,10.9,0,0,0-3.75,8.77,27.45,27.45,0,0,0,1.12,8.77,17.38,17.38,0,0,0,4.94,6.7l28.53,27.42a31.4,31.4,0,0,1,6.38,9.8A34.38,34.38,0,0,1,395.39,135.85Z"/><path class="cls-8" d="M435.24,155.78H424.08V52.17h11.16V98.39h31.4V52.17H477.8V155.78H466.64V108h-31.4Z"/><path class="cls-9" d="M520.83,155.78H509.67V52.17h4.78L519.08,64q5.1-14.19,16.26-14.19,19,0,19,20.72V80.86H543.63v-11q0-10.52-8.77-10.52-5.26,0-9.64,6.06t-4.38,17.54Z"/><path class="cls-10" d="M625.24,72.09v63.76q0,10.68-6.77,16.5t-20.25,5.82q-13.47,0-20.32-5.82T571,135.85V72.09q0-10.68,6.78-16.5t20.24-5.82q13.47,0,20.32,5.82T625.24,72.09Zm-11.16,63.76V72.09q0-12.75-15.94-12.75T582.2,72.09v63.76q0,12.76,15.94,12.75T614.08,135.85Z"/><path class="cls-11" d="M665.89,155.78H654.73V52.17h11.16V98.39h31.4V52.17h11.16V155.78H697.29V108h-31.4Z"/><path class="cls-12" d="M824,155.78H777V52.17h45.43v9.57H788.14V98.39H816V108H788.14v38.26H824Z"/><path class="cls-13" d="M859.08,155.78H847.92V52.17h4.78l4,10.36q7.65-12.75,21.2-12.75,23.43,0,23.43,22.32v83.68H890.16V72.09q0-6.06-2.63-9.41t-9.64-3.34q-7,0-12.91,5.42t-5.9,10.52Z"/><path class="cls-14" d="M929.21,52.17h35.07v9.57H940.37v76.35a12,12,0,0,0,2.31,7.49,7.74,7.74,0,0,0,6.54,3,7.61,7.61,0,0,0,6.46-2.95,12.2,12.2,0,0,0,2.23-7.57v-19h11.16v18.33q0,10-5.34,15.38t-14.42,5.34q-9.09,0-14.59-5.34t-5.5-15.38Z"/><path class="cls-15" d="M1030.43,135.85v-8.77h11.16v8.77q0,10.68-6.54,16.5t-19.61,5.82q-13.07,0-19.77-5.82t-6.7-16.5V72.09q0-10.68,6.54-16.5t19.61-5.82q13.07,0,19.77,5.82t6.7,16.5v35.07h-41.44v28.69q0,12.76,15.14,12.75T1030.43,135.85Zm-30.28-63.76V97.6h30.28V72.09q0-12.75-15.14-12.75T1000.14,72.09Z"/><path class="cls-16" d="M1082.23,155.78h-11.16V52.17h4.78l4.62,11.8q5.1-14.19,16.26-14.19,19,0,19,20.72V80.86H1105v-11q0-10.52-8.77-10.52-5.26,0-9.64,6.06t-4.38,17.54Z"/><path class="cls-17" d="M1144.4,155.78h-11.16V52.17h24.07q12.43,0,18.89,5.9t6.46,16.42v27.1q0,10.68-6.38,16.5t-19,5.82H1144.4Zm27.1-54.2V74.48q0-6.06-3.66-9.4t-10.52-3.35H1144.4v52.6h12.91Q1171.5,114.33,1171.5,101.58Z"/><path class="cls-18" d="M1219.32,155.78h-11.16V52.17h4.78l4.62,11.8q5.1-14.19,16.26-14.19,19,0,19,20.72V80.86h-10.68v-11q0-10.52-8.77-10.52-5.26,0-9.64,6.06t-4.38,17.54Z"/><path class="cls-19" d="M1283.08,155.78h-11.16V52.17h11.16Z"/><path class="cls-20" d="M1365.64,135.85q0,22.32-26.94,22.32t-26.94-22.32V122.3h11.16v14.19a10.78,10.78,0,0,0,4,8.93q4,3.19,11.79,3.19t11.8-3.19a10.54,10.54,0,0,0,4-8.69,26.17,26.17,0,0,0-1.2-8.77,20,20,0,0,0-4.86-6.93l-28.05-27.42A28.83,28.83,0,0,1,1313.6,84a33,33,0,0,1-1.84-11.88q0-10.68,6.62-16.5t20-5.82q25.66,0,25.66,22.32V85.64h-11.16V71.46q0-5.74-3.75-8.93t-11.24-3.19q-7.49,0-11.24,3.19a10.9,10.9,0,0,0-3.74,8.77,27.46,27.46,0,0,0,1.11,8.77,17.41,17.41,0,0,0,4.94,6.7l28.53,27.42a31.4,31.4,0,0,1,6.38,9.8A34.32,34.32,0,0,1,1365.64,135.85Z"/><path class="cls-21" d="M1433.38,135.85v-8.77h11.16v8.77q0,10.68-6.54,16.5t-19.61,5.82q-13.07,0-19.77-5.82t-6.7-16.5V72.09q0-10.68,6.54-16.5t19.61-5.82q13.07,0,19.77,5.82t6.7,16.5v35.07H1403.1v28.69q0,12.76,15.14,12.75T1433.38,135.85ZM1403.1,72.09V97.6h30.28V72.09q0-12.75-15.14-12.75T1403.1,72.09Z"/><path class="cls-22" d="M1524.72,135.85q0,22.32-26.94,22.32t-26.94-22.32V122.3H1482v14.19a10.78,10.78,0,0,0,4,8.93q4,3.19,11.79,3.19t11.8-3.19a10.54,10.54,0,0,0,4-8.69,26.17,26.17,0,0,0-1.2-8.77,20,20,0,0,0-4.86-6.93l-28.05-27.42a28.83,28.83,0,0,1-6.77-9.64,33,33,0,0,1-1.84-11.88q0-10.68,6.62-16.5t20-5.82q25.66,0,25.66,22.32V85.64H1512V71.46q0-5.74-3.75-8.93T1497,59.34q-7.49,0-11.24,3.19A10.9,10.9,0,0,0,1482,71.3a27.46,27.46,0,0,0,1.11,8.77,17.41,17.41,0,0,0,4.94,6.7l28.53,27.42A31.4,31.4,0,0,1,1523,124,34.32,34.32,0,0,1,1524.72,135.85Z"/></svg>